# xmcd CD database file
#
# Track frame offsets:
#	150
#	18495
#	42632
#	67097
#	90472
#	116082
#	133557
#	160577
#	194942
#
# Disc length: 2955 seconds
#
# Revision: 1
# Processed by: cddbd v1.5.1PL0 Copyright (c) Steve Scherf et al.
# Submitted via: CDex 1.51
#
DISCID=810b8909
DTITLE=Poonanny - Brand New Cadillac
DYEAR=1998
DGENRE=Blues Rock
TTITLE0=Puddin' N' Tang
TTITLE1=Brand New Cadillac
TTITLE2=Let It Roll
TTITLE3=Last Three Dollars
TTITLE4=My Ding A Ling
TTITLE5=Shake Your Fanny
TTITLE6=Dirty Rat
TTITLE7=This is not the blues
TTITLE8=That girl is bad
EXTD=YEAR: 1998
EXTT0=
EXTT1=
EXTT2=
EXTT3=
EXTT4=
EXTT5=
EXTT6=
EXTT7=
EXTT8=
PLAYORDER=
